<mxfile host="app.diagrams.net" modified="2023-11-16T21:27:58.921Z" agent="Mozilla/5.0 (Windows NT 10.0; Win64; x64) AppleWebKit/537.36 (KHTML, like Gecko) Chrome/119.0.0.0 Safari/537.36" etag="yhr5cc1mCKiNK0bjf-1v" version="22.1.2" type="device">
  <diagram name="Page-1" id="MkovOVjckUf8lQZPop1M">
    <mxGraphModel dx="792" dy="1118" grid="1" gridSize="10" guides="1" tooltips="1" connect="1" arrows="1" fold="1" page="1" pageScale="1" pageWidth="827" pageHeight="1169" math="0" shadow="0">
      <root>
        <mxCell id="0" />
        <mxCell id="1" parent="0" />
        <mxCell id="lvXHl1viZSX33oN0ZZub-1" value="A" style="ellipse;whiteSpace=wrap;html=1;" vertex="1" parent="1">
          <mxGeometry x="354" y="1080" width="120" height="80" as="geometry" />
        </mxCell>
        <mxCell id="lvXHl1viZSX33oN0ZZub-2" value="A1" style="ellipse;whiteSpace=wrap;html=1;" vertex="1" parent="1">
          <mxGeometry x="392" y="990" width="44" height="40" as="geometry" />
        </mxCell>
        <mxCell id="lvXHl1viZSX33oN0ZZub-3" value="A9" style="ellipse;whiteSpace=wrap;html=1;" vertex="1" parent="1">
          <mxGeometry x="392" y="920" width="44" height="40" as="geometry" />
        </mxCell>
        <mxCell id="lvXHl1viZSX33oN0ZZub-4" value="A10" style="ellipse;whiteSpace=wrap;html=1;" vertex="1" parent="1">
          <mxGeometry x="460" y="920" width="44" height="40" as="geometry" />
        </mxCell>
        <mxCell id="lvXHl1viZSX33oN0ZZub-5" value="A8" style="ellipse;whiteSpace=wrap;html=1;" vertex="1" parent="1">
          <mxGeometry x="320" y="920" width="44" height="40" as="geometry" />
        </mxCell>
        <mxCell id="lvXHl1viZSX33oN0ZZub-6" value="A2" style="ellipse;whiteSpace=wrap;html=1;" vertex="1" parent="1">
          <mxGeometry x="610" y="990" width="44" height="40" as="geometry" />
        </mxCell>
        <mxCell id="lvXHl1viZSX33oN0ZZub-7" value="A3" style="ellipse;whiteSpace=wrap;html=1;" vertex="1" parent="1">
          <mxGeometry x="690" y="990" width="44" height="40" as="geometry" />
        </mxCell>
        <mxCell id="lvXHl1viZSX33oN0ZZub-8" value="A12" style="ellipse;whiteSpace=wrap;html=1;" vertex="1" parent="1">
          <mxGeometry x="690" y="920" width="44" height="40" as="geometry" />
        </mxCell>
        <mxCell id="lvXHl1viZSX33oN0ZZub-9" value="A11" style="ellipse;whiteSpace=wrap;html=1;" vertex="1" parent="1">
          <mxGeometry x="590" y="920" width="44" height="40" as="geometry" />
        </mxCell>
        <mxCell id="lvXHl1viZSX33oN0ZZub-10" value="A4" style="ellipse;whiteSpace=wrap;html=1;" vertex="1" parent="1">
          <mxGeometry x="160" y="990" width="44" height="40" as="geometry" />
        </mxCell>
        <mxCell id="lvXHl1viZSX33oN0ZZub-11" value="A5" style="ellipse;whiteSpace=wrap;html=1;" vertex="1" parent="1">
          <mxGeometry x="90" y="990" width="44" height="40" as="geometry" />
        </mxCell>
        <mxCell id="lvXHl1viZSX33oN0ZZub-12" value="A6" style="ellipse;whiteSpace=wrap;html=1;" vertex="1" parent="1">
          <mxGeometry x="90" y="920" width="44" height="40" as="geometry" />
        </mxCell>
        <mxCell id="lvXHl1viZSX33oN0ZZub-13" value="A7" style="ellipse;whiteSpace=wrap;html=1;" vertex="1" parent="1">
          <mxGeometry x="210" y="920" width="44" height="40" as="geometry" />
        </mxCell>
        <mxCell id="lvXHl1viZSX33oN0ZZub-14" value="" style="endArrow=none;html=1;rounded=0;exitX=0.5;exitY=0;exitDx=0;exitDy=0;entryX=0.5;entryY=1;entryDx=0;entryDy=0;" edge="1" parent="1" source="lvXHl1viZSX33oN0ZZub-1" target="lvXHl1viZSX33oN0ZZub-2">
          <mxGeometry width="50" height="50" relative="1" as="geometry">
            <mxPoint x="290" y="810" as="sourcePoint" />
            <mxPoint x="340" y="760" as="targetPoint" />
          </mxGeometry>
        </mxCell>
        <mxCell id="lvXHl1viZSX33oN0ZZub-15" value="" style="endArrow=none;html=1;rounded=0;exitX=0;exitY=0;exitDx=0;exitDy=0;entryX=0.667;entryY=1.05;entryDx=0;entryDy=0;entryPerimeter=0;" edge="1" parent="1" source="lvXHl1viZSX33oN0ZZub-2" target="lvXHl1viZSX33oN0ZZub-5">
          <mxGeometry width="50" height="50" relative="1" as="geometry">
            <mxPoint x="424" y="1090" as="sourcePoint" />
            <mxPoint x="424" y="1040" as="targetPoint" />
            <Array as="points" />
          </mxGeometry>
        </mxCell>
        <mxCell id="lvXHl1viZSX33oN0ZZub-16" value="" style="endArrow=none;html=1;rounded=0;exitX=0.5;exitY=0;exitDx=0;exitDy=0;entryX=0.5;entryY=1;entryDx=0;entryDy=0;" edge="1" parent="1" source="lvXHl1viZSX33oN0ZZub-2" target="lvXHl1viZSX33oN0ZZub-3">
          <mxGeometry width="50" height="50" relative="1" as="geometry">
            <mxPoint x="434" y="1100" as="sourcePoint" />
            <mxPoint x="434" y="1050" as="targetPoint" />
          </mxGeometry>
        </mxCell>
        <mxCell id="lvXHl1viZSX33oN0ZZub-17" value="" style="endArrow=none;html=1;rounded=0;exitX=1;exitY=0;exitDx=0;exitDy=0;entryX=0;entryY=1;entryDx=0;entryDy=0;" edge="1" parent="1" source="lvXHl1viZSX33oN0ZZub-2" target="lvXHl1viZSX33oN0ZZub-4">
          <mxGeometry width="50" height="50" relative="1" as="geometry">
            <mxPoint x="444" y="1110" as="sourcePoint" />
            <mxPoint x="444" y="1060" as="targetPoint" />
          </mxGeometry>
        </mxCell>
        <mxCell id="lvXHl1viZSX33oN0ZZub-18" value="" style="endArrow=none;html=1;rounded=0;exitX=1;exitY=0.5;exitDx=0;exitDy=0;entryX=0;entryY=0.5;entryDx=0;entryDy=0;" edge="1" parent="1" source="lvXHl1viZSX33oN0ZZub-10" target="lvXHl1viZSX33oN0ZZub-2">
          <mxGeometry width="50" height="50" relative="1" as="geometry">
            <mxPoint x="454" y="1120" as="sourcePoint" />
            <mxPoint x="454" y="1070" as="targetPoint" />
          </mxGeometry>
        </mxCell>
        <mxCell id="lvXHl1viZSX33oN0ZZub-19" value="" style="endArrow=none;html=1;rounded=0;exitX=1;exitY=0.5;exitDx=0;exitDy=0;entryX=0;entryY=0.5;entryDx=0;entryDy=0;" edge="1" parent="1" source="lvXHl1viZSX33oN0ZZub-2" target="lvXHl1viZSX33oN0ZZub-6">
          <mxGeometry width="50" height="50" relative="1" as="geometry">
            <mxPoint x="464" y="1130" as="sourcePoint" />
            <mxPoint x="464" y="1080" as="targetPoint" />
          </mxGeometry>
        </mxCell>
        <mxCell id="lvXHl1viZSX33oN0ZZub-20" value="" style="endArrow=none;html=1;rounded=0;exitX=0;exitY=0.5;exitDx=0;exitDy=0;entryX=1;entryY=0.5;entryDx=0;entryDy=0;" edge="1" parent="1" source="lvXHl1viZSX33oN0ZZub-7" target="lvXHl1viZSX33oN0ZZub-6">
          <mxGeometry width="50" height="50" relative="1" as="geometry">
            <mxPoint x="474" y="1140" as="sourcePoint" />
            <mxPoint x="474" y="1090" as="targetPoint" />
          </mxGeometry>
        </mxCell>
        <mxCell id="lvXHl1viZSX33oN0ZZub-21" value="" style="endArrow=none;html=1;rounded=0;exitX=0;exitY=0.5;exitDx=0;exitDy=0;entryX=1;entryY=0.5;entryDx=0;entryDy=0;" edge="1" parent="1" source="lvXHl1viZSX33oN0ZZub-10" target="lvXHl1viZSX33oN0ZZub-11">
          <mxGeometry width="50" height="50" relative="1" as="geometry">
            <mxPoint x="484" y="1150" as="sourcePoint" />
            <mxPoint x="484" y="1100" as="targetPoint" />
          </mxGeometry>
        </mxCell>
        <mxCell id="lvXHl1viZSX33oN0ZZub-22" value="" style="endArrow=none;html=1;rounded=0;exitX=0;exitY=0.5;exitDx=0;exitDy=0;entryX=1;entryY=0.5;entryDx=0;entryDy=0;" edge="1" parent="1" source="lvXHl1viZSX33oN0ZZub-13" target="lvXHl1viZSX33oN0ZZub-12">
          <mxGeometry width="50" height="50" relative="1" as="geometry">
            <mxPoint x="494" y="1160" as="sourcePoint" />
            <mxPoint x="494" y="1110" as="targetPoint" />
          </mxGeometry>
        </mxCell>
        <mxCell id="lvXHl1viZSX33oN0ZZub-23" value="" style="endArrow=none;html=1;rounded=0;exitX=0;exitY=0.5;exitDx=0;exitDy=0;entryX=1;entryY=0.5;entryDx=0;entryDy=0;" edge="1" parent="1" source="lvXHl1viZSX33oN0ZZub-5" target="lvXHl1viZSX33oN0ZZub-13">
          <mxGeometry width="50" height="50" relative="1" as="geometry">
            <mxPoint x="220" y="950" as="sourcePoint" />
            <mxPoint x="144" y="950" as="targetPoint" />
          </mxGeometry>
        </mxCell>
        <mxCell id="lvXHl1viZSX33oN0ZZub-24" value="" style="endArrow=none;html=1;rounded=0;exitX=0.5;exitY=1;exitDx=0;exitDy=0;entryX=0.5;entryY=0;entryDx=0;entryDy=0;" edge="1" parent="1" source="lvXHl1viZSX33oN0ZZub-12" target="lvXHl1viZSX33oN0ZZub-11">
          <mxGeometry width="50" height="50" relative="1" as="geometry">
            <mxPoint x="230" y="960" as="sourcePoint" />
            <mxPoint x="154" y="960" as="targetPoint" />
          </mxGeometry>
        </mxCell>
        <mxCell id="lvXHl1viZSX33oN0ZZub-25" value="" style="endArrow=none;html=1;rounded=0;entryX=1;entryY=0;entryDx=0;entryDy=0;" edge="1" parent="1" source="lvXHl1viZSX33oN0ZZub-13" target="lvXHl1viZSX33oN0ZZub-10">
          <mxGeometry width="50" height="50" relative="1" as="geometry">
            <mxPoint x="240" y="970" as="sourcePoint" />
            <mxPoint x="164" y="970" as="targetPoint" />
          </mxGeometry>
        </mxCell>
        <mxCell id="lvXHl1viZSX33oN0ZZub-26" value="" style="endArrow=none;html=1;rounded=0;exitX=0;exitY=0.5;exitDx=0;exitDy=0;entryX=1;entryY=0.5;entryDx=0;entryDy=0;" edge="1" parent="1" source="lvXHl1viZSX33oN0ZZub-3" target="lvXHl1viZSX33oN0ZZub-5">
          <mxGeometry width="50" height="50" relative="1" as="geometry">
            <mxPoint x="250" y="980" as="sourcePoint" />
            <mxPoint x="174" y="980" as="targetPoint" />
          </mxGeometry>
        </mxCell>
        <mxCell id="lvXHl1viZSX33oN0ZZub-27" value="" style="endArrow=none;html=1;rounded=0;exitX=0;exitY=0.5;exitDx=0;exitDy=0;entryX=1;entryY=0.5;entryDx=0;entryDy=0;" edge="1" parent="1" source="lvXHl1viZSX33oN0ZZub-4" target="lvXHl1viZSX33oN0ZZub-3">
          <mxGeometry width="50" height="50" relative="1" as="geometry">
            <mxPoint x="260" y="990" as="sourcePoint" />
            <mxPoint x="184" y="990" as="targetPoint" />
          </mxGeometry>
        </mxCell>
        <mxCell id="lvXHl1viZSX33oN0ZZub-28" value="" style="endArrow=none;html=1;rounded=0;exitX=0;exitY=0.5;exitDx=0;exitDy=0;entryX=1;entryY=0.5;entryDx=0;entryDy=0;" edge="1" parent="1" source="lvXHl1viZSX33oN0ZZub-9" target="lvXHl1viZSX33oN0ZZub-4">
          <mxGeometry width="50" height="50" relative="1" as="geometry">
            <mxPoint x="270" y="1000" as="sourcePoint" />
            <mxPoint x="194" y="1000" as="targetPoint" />
          </mxGeometry>
        </mxCell>
        <mxCell id="lvXHl1viZSX33oN0ZZub-29" value="" style="endArrow=none;html=1;rounded=0;exitX=0.303;exitY=0.033;exitDx=0;exitDy=0;entryX=0.5;entryY=1;entryDx=0;entryDy=0;exitPerimeter=0;" edge="1" parent="1" source="lvXHl1viZSX33oN0ZZub-6" target="lvXHl1viZSX33oN0ZZub-9">
          <mxGeometry width="50" height="50" relative="1" as="geometry">
            <mxPoint x="280" y="1010" as="sourcePoint" />
            <mxPoint x="204" y="1010" as="targetPoint" />
          </mxGeometry>
        </mxCell>
        <mxCell id="lvXHl1viZSX33oN0ZZub-30" value="" style="endArrow=none;html=1;rounded=0;exitX=0;exitY=0.5;exitDx=0;exitDy=0;entryX=1;entryY=0.5;entryDx=0;entryDy=0;" edge="1" parent="1" source="lvXHl1viZSX33oN0ZZub-8" target="lvXHl1viZSX33oN0ZZub-9">
          <mxGeometry width="50" height="50" relative="1" as="geometry">
            <mxPoint x="633" y="1001" as="sourcePoint" />
            <mxPoint x="622" y="970" as="targetPoint" />
          </mxGeometry>
        </mxCell>
        <mxCell id="lvXHl1viZSX33oN0ZZub-31" value="" style="endArrow=none;html=1;rounded=0;exitX=0.5;exitY=1;exitDx=0;exitDy=0;entryX=0.5;entryY=0;entryDx=0;entryDy=0;" edge="1" parent="1" source="lvXHl1viZSX33oN0ZZub-8" target="lvXHl1viZSX33oN0ZZub-7">
          <mxGeometry width="50" height="50" relative="1" as="geometry">
            <mxPoint x="643" y="1011" as="sourcePoint" />
            <mxPoint x="632" y="980" as="targetPoint" />
          </mxGeometry>
        </mxCell>
        <mxCell id="lvXHl1viZSX33oN0ZZub-32" value="A13" style="ellipse;whiteSpace=wrap;html=1;" vertex="1" parent="1">
          <mxGeometry x="90" y="850" width="44" height="40" as="geometry" />
        </mxCell>
        <mxCell id="lvXHl1viZSX33oN0ZZub-33" value="A14" style="ellipse;whiteSpace=wrap;html=1;" vertex="1" parent="1">
          <mxGeometry x="210" y="850" width="44" height="40" as="geometry" />
        </mxCell>
        <mxCell id="lvXHl1viZSX33oN0ZZub-34" value="A15" style="ellipse;whiteSpace=wrap;html=1;" vertex="1" parent="1">
          <mxGeometry x="290" y="850" width="44" height="40" as="geometry" />
        </mxCell>
        <mxCell id="lvXHl1viZSX33oN0ZZub-35" value="A16" style="ellipse;whiteSpace=wrap;html=1;" vertex="1" parent="1">
          <mxGeometry x="392" y="850" width="44" height="40" as="geometry" />
        </mxCell>
        <mxCell id="lvXHl1viZSX33oN0ZZub-36" value="A17" style="ellipse;whiteSpace=wrap;html=1;" vertex="1" parent="1">
          <mxGeometry x="510" y="850" width="44" height="40" as="geometry" />
        </mxCell>
        <mxCell id="lvXHl1viZSX33oN0ZZub-37" value="A18" style="ellipse;whiteSpace=wrap;html=1;" vertex="1" parent="1">
          <mxGeometry x="620" y="850" width="44" height="40" as="geometry" />
        </mxCell>
        <mxCell id="lvXHl1viZSX33oN0ZZub-38" value="A19" style="ellipse;whiteSpace=wrap;html=1;" vertex="1" parent="1">
          <mxGeometry x="690" y="850" width="44" height="40" as="geometry" />
        </mxCell>
        <mxCell id="lvXHl1viZSX33oN0ZZub-39" value="" style="endArrow=none;html=1;rounded=0;exitX=0;exitY=0.5;exitDx=0;exitDy=0;entryX=1;entryY=0.5;entryDx=0;entryDy=0;" edge="1" parent="1" source="lvXHl1viZSX33oN0ZZub-33" target="lvXHl1viZSX33oN0ZZub-32">
          <mxGeometry width="50" height="50" relative="1" as="geometry">
            <mxPoint x="220" y="950" as="sourcePoint" />
            <mxPoint x="144" y="950" as="targetPoint" />
          </mxGeometry>
        </mxCell>
        <mxCell id="lvXHl1viZSX33oN0ZZub-40" value="" style="endArrow=none;html=1;rounded=0;exitX=0;exitY=0.5;exitDx=0;exitDy=0;entryX=1;entryY=0.5;entryDx=0;entryDy=0;" edge="1" parent="1" source="lvXHl1viZSX33oN0ZZub-34" target="lvXHl1viZSX33oN0ZZub-33">
          <mxGeometry width="50" height="50" relative="1" as="geometry">
            <mxPoint x="220" y="880" as="sourcePoint" />
            <mxPoint x="144" y="880" as="targetPoint" />
          </mxGeometry>
        </mxCell>
        <mxCell id="lvXHl1viZSX33oN0ZZub-41" value="" style="endArrow=none;html=1;rounded=0;exitX=0;exitY=0.5;exitDx=0;exitDy=0;entryX=1;entryY=0.5;entryDx=0;entryDy=0;" edge="1" parent="1" source="lvXHl1viZSX33oN0ZZub-35" target="lvXHl1viZSX33oN0ZZub-34">
          <mxGeometry width="50" height="50" relative="1" as="geometry">
            <mxPoint x="300" y="880" as="sourcePoint" />
            <mxPoint x="264" y="880" as="targetPoint" />
          </mxGeometry>
        </mxCell>
        <mxCell id="lvXHl1viZSX33oN0ZZub-42" value="" style="endArrow=none;html=1;rounded=0;exitX=0;exitY=0.5;exitDx=0;exitDy=0;entryX=1;entryY=0.5;entryDx=0;entryDy=0;" edge="1" parent="1" source="lvXHl1viZSX33oN0ZZub-36" target="lvXHl1viZSX33oN0ZZub-35">
          <mxGeometry width="50" height="50" relative="1" as="geometry">
            <mxPoint x="402" y="880" as="sourcePoint" />
            <mxPoint x="344" y="880" as="targetPoint" />
          </mxGeometry>
        </mxCell>
        <mxCell id="lvXHl1viZSX33oN0ZZub-43" value="" style="endArrow=none;html=1;rounded=0;exitX=0;exitY=0.5;exitDx=0;exitDy=0;entryX=1;entryY=0.5;entryDx=0;entryDy=0;" edge="1" parent="1" source="lvXHl1viZSX33oN0ZZub-37" target="lvXHl1viZSX33oN0ZZub-36">
          <mxGeometry width="50" height="50" relative="1" as="geometry">
            <mxPoint x="520" y="880" as="sourcePoint" />
            <mxPoint x="446" y="880" as="targetPoint" />
          </mxGeometry>
        </mxCell>
        <mxCell id="lvXHl1viZSX33oN0ZZub-44" value="" style="endArrow=none;html=1;rounded=0;exitX=0;exitY=0.5;exitDx=0;exitDy=0;entryX=1;entryY=0.5;entryDx=0;entryDy=0;" edge="1" parent="1" source="lvXHl1viZSX33oN0ZZub-38" target="lvXHl1viZSX33oN0ZZub-37">
          <mxGeometry width="50" height="50" relative="1" as="geometry">
            <mxPoint x="630" y="880" as="sourcePoint" />
            <mxPoint x="564" y="880" as="targetPoint" />
          </mxGeometry>
        </mxCell>
        <mxCell id="lvXHl1viZSX33oN0ZZub-45" value="" style="endArrow=none;html=1;rounded=0;exitX=0.5;exitY=1;exitDx=0;exitDy=0;entryX=0.5;entryY=0;entryDx=0;entryDy=0;" edge="1" parent="1" source="lvXHl1viZSX33oN0ZZub-38" target="lvXHl1viZSX33oN0ZZub-8">
          <mxGeometry width="50" height="50" relative="1" as="geometry">
            <mxPoint x="640" y="890" as="sourcePoint" />
            <mxPoint x="574" y="890" as="targetPoint" />
          </mxGeometry>
        </mxCell>
        <mxCell id="lvXHl1viZSX33oN0ZZub-46" value="" style="endArrow=none;html=1;rounded=0;exitX=0.5;exitY=1;exitDx=0;exitDy=0;entryX=1;entryY=0;entryDx=0;entryDy=0;" edge="1" parent="1" source="lvXHl1viZSX33oN0ZZub-37" target="lvXHl1viZSX33oN0ZZub-9">
          <mxGeometry width="50" height="50" relative="1" as="geometry">
            <mxPoint x="722" y="900" as="sourcePoint" />
            <mxPoint x="722" y="930" as="targetPoint" />
          </mxGeometry>
        </mxCell>
        <mxCell id="lvXHl1viZSX33oN0ZZub-47" value="" style="endArrow=none;html=1;rounded=0;exitX=1;exitY=1;exitDx=0;exitDy=0;entryX=0.318;entryY=0.1;entryDx=0;entryDy=0;entryPerimeter=0;" edge="1" parent="1" source="lvXHl1viZSX33oN0ZZub-36" target="lvXHl1viZSX33oN0ZZub-9">
          <mxGeometry width="50" height="50" relative="1" as="geometry">
            <mxPoint x="652" y="900" as="sourcePoint" />
            <mxPoint x="638" y="936" as="targetPoint" />
          </mxGeometry>
        </mxCell>
        <mxCell id="lvXHl1viZSX33oN0ZZub-48" value="" style="endArrow=none;html=1;rounded=0;entryX=1;entryY=0;entryDx=0;entryDy=0;" edge="1" parent="1" source="lvXHl1viZSX33oN0ZZub-36" target="lvXHl1viZSX33oN0ZZub-4">
          <mxGeometry width="50" height="50" relative="1" as="geometry">
            <mxPoint x="662" y="910" as="sourcePoint" />
            <mxPoint x="648" y="946" as="targetPoint" />
          </mxGeometry>
        </mxCell>
        <mxCell id="lvXHl1viZSX33oN0ZZub-49" value="" style="endArrow=none;html=1;rounded=0;exitX=0.5;exitY=1;exitDx=0;exitDy=0;entryX=0.5;entryY=0;entryDx=0;entryDy=0;" edge="1" parent="1" source="lvXHl1viZSX33oN0ZZub-35" target="lvXHl1viZSX33oN0ZZub-3">
          <mxGeometry width="50" height="50" relative="1" as="geometry">
            <mxPoint x="672" y="920" as="sourcePoint" />
            <mxPoint x="658" y="956" as="targetPoint" />
          </mxGeometry>
        </mxCell>
        <mxCell id="lvXHl1viZSX33oN0ZZub-50" value="" style="endArrow=none;html=1;rounded=0;exitX=0.5;exitY=1;exitDx=0;exitDy=0;entryX=0.5;entryY=0;entryDx=0;entryDy=0;" edge="1" parent="1" source="lvXHl1viZSX33oN0ZZub-34" target="lvXHl1viZSX33oN0ZZub-5">
          <mxGeometry width="50" height="50" relative="1" as="geometry">
            <mxPoint x="424" y="900" as="sourcePoint" />
            <mxPoint x="424" y="930" as="targetPoint" />
          </mxGeometry>
        </mxCell>
        <mxCell id="lvXHl1viZSX33oN0ZZub-51" value="" style="endArrow=none;html=1;rounded=0;exitX=0.5;exitY=1;exitDx=0;exitDy=0;" edge="1" parent="1" source="lvXHl1viZSX33oN0ZZub-33" target="lvXHl1viZSX33oN0ZZub-13">
          <mxGeometry width="50" height="50" relative="1" as="geometry">
            <mxPoint x="434" y="910" as="sourcePoint" />
            <mxPoint x="434" y="940" as="targetPoint" />
          </mxGeometry>
        </mxCell>
        <mxCell id="lvXHl1viZSX33oN0ZZub-52" value="" style="endArrow=none;html=1;rounded=0;exitX=0.5;exitY=0;exitDx=0;exitDy=0;entryX=0.5;entryY=1;entryDx=0;entryDy=0;" edge="1" parent="1" source="lvXHl1viZSX33oN0ZZub-12" target="lvXHl1viZSX33oN0ZZub-32">
          <mxGeometry width="50" height="50" relative="1" as="geometry">
            <mxPoint x="444" y="920" as="sourcePoint" />
            <mxPoint x="444" y="950" as="targetPoint" />
          </mxGeometry>
        </mxCell>
        <mxCell id="lvXHl1viZSX33oN0ZZub-53" value="A22" style="ellipse;whiteSpace=wrap;html=1;" vertex="1" parent="1">
          <mxGeometry x="90" y="700" width="44" height="40" as="geometry" />
        </mxCell>
        <mxCell id="lvXHl1viZSX33oN0ZZub-54" value="A21" style="ellipse;whiteSpace=wrap;html=1;" vertex="1" parent="1">
          <mxGeometry x="134" y="760" width="44" height="40" as="geometry" />
        </mxCell>
        <mxCell id="lvXHl1viZSX33oN0ZZub-55" value="A23" style="ellipse;whiteSpace=wrap;html=1;" vertex="1" parent="1">
          <mxGeometry x="166" y="700" width="44" height="40" as="geometry" />
        </mxCell>
        <mxCell id="lvXHl1viZSX33oN0ZZub-56" value="A24" style="ellipse;whiteSpace=wrap;html=1;" vertex="1" parent="1">
          <mxGeometry x="260" y="700" width="44" height="40" as="geometry" />
        </mxCell>
        <mxCell id="lvXHl1viZSX33oN0ZZub-57" value="A25" style="ellipse;whiteSpace=wrap;html=1;" vertex="1" parent="1">
          <mxGeometry x="392" y="700" width="44" height="40" as="geometry" />
        </mxCell>
        <mxCell id="lvXHl1viZSX33oN0ZZub-58" value="A26" style="ellipse;whiteSpace=wrap;html=1;" vertex="1" parent="1">
          <mxGeometry x="474" y="700" width="44" height="40" as="geometry" />
        </mxCell>
        <mxCell id="lvXHl1viZSX33oN0ZZub-59" value="A27" style="ellipse;whiteSpace=wrap;html=1;" vertex="1" parent="1">
          <mxGeometry x="580" y="700" width="44" height="40" as="geometry" />
        </mxCell>
        <mxCell id="lvXHl1viZSX33oN0ZZub-60" value="A20" style="ellipse;whiteSpace=wrap;html=1;" vertex="1" parent="1">
          <mxGeometry x="654" y="800" width="44" height="40" as="geometry" />
        </mxCell>
        <mxCell id="lvXHl1viZSX33oN0ZZub-61" value="A28" style="ellipse;whiteSpace=wrap;html=1;" vertex="1" parent="1">
          <mxGeometry x="690" y="700" width="44" height="40" as="geometry" />
        </mxCell>
        <mxCell id="lvXHl1viZSX33oN0ZZub-62" value="" style="endArrow=none;html=1;rounded=0;exitX=1;exitY=1;exitDx=0;exitDy=0;entryX=0.303;entryY=0.033;entryDx=0;entryDy=0;entryPerimeter=0;" edge="1" parent="1" source="lvXHl1viZSX33oN0ZZub-60" target="lvXHl1viZSX33oN0ZZub-38">
          <mxGeometry width="50" height="50" relative="1" as="geometry">
            <mxPoint x="630" y="880" as="sourcePoint" />
            <mxPoint x="564" y="880" as="targetPoint" />
          </mxGeometry>
        </mxCell>
        <mxCell id="lvXHl1viZSX33oN0ZZub-63" value="" style="endArrow=none;html=1;rounded=0;exitX=0.303;exitY=0.917;exitDx=0;exitDy=0;entryX=1;entryY=0;entryDx=0;entryDy=0;exitPerimeter=0;" edge="1" parent="1" source="lvXHl1viZSX33oN0ZZub-60" target="lvXHl1viZSX33oN0ZZub-37">
          <mxGeometry width="50" height="50" relative="1" as="geometry">
            <mxPoint x="640" y="890" as="sourcePoint" />
            <mxPoint x="574" y="890" as="targetPoint" />
          </mxGeometry>
        </mxCell>
        <mxCell id="lvXHl1viZSX33oN0ZZub-64" value="" style="endArrow=none;html=1;rounded=0;exitX=0.5;exitY=1;exitDx=0;exitDy=0;entryX=0.697;entryY=0.083;entryDx=0;entryDy=0;entryPerimeter=0;" edge="1" parent="1" source="lvXHl1viZSX33oN0ZZub-61" target="lvXHl1viZSX33oN0ZZub-60">
          <mxGeometry width="50" height="50" relative="1" as="geometry">
            <mxPoint x="650" y="900" as="sourcePoint" />
            <mxPoint x="584" y="900" as="targetPoint" />
          </mxGeometry>
        </mxCell>
        <mxCell id="lvXHl1viZSX33oN0ZZub-65" value="" style="endArrow=none;html=1;rounded=0;exitX=0;exitY=0;exitDx=0;exitDy=0;entryX=0.712;entryY=1.033;entryDx=0;entryDy=0;entryPerimeter=0;" edge="1" parent="1" source="lvXHl1viZSX33oN0ZZub-60" target="lvXHl1viZSX33oN0ZZub-59">
          <mxGeometry width="50" height="50" relative="1" as="geometry">
            <mxPoint x="660" y="910" as="sourcePoint" />
            <mxPoint x="594" y="910" as="targetPoint" />
          </mxGeometry>
        </mxCell>
        <mxCell id="lvXHl1viZSX33oN0ZZub-66" value="" style="endArrow=none;html=1;rounded=0;exitX=0;exitY=0.5;exitDx=0;exitDy=0;entryX=1;entryY=0.5;entryDx=0;entryDy=0;" edge="1" parent="1" source="lvXHl1viZSX33oN0ZZub-61" target="lvXHl1viZSX33oN0ZZub-59">
          <mxGeometry width="50" height="50" relative="1" as="geometry">
            <mxPoint x="670" y="920" as="sourcePoint" />
            <mxPoint x="604" y="920" as="targetPoint" />
          </mxGeometry>
        </mxCell>
        <mxCell id="lvXHl1viZSX33oN0ZZub-67" value="" style="endArrow=none;html=1;rounded=0;entryX=1;entryY=0.5;entryDx=0;entryDy=0;" edge="1" parent="1" target="lvXHl1viZSX33oN0ZZub-58">
          <mxGeometry width="50" height="50" relative="1" as="geometry">
            <mxPoint x="580" y="720" as="sourcePoint" />
            <mxPoint x="634" y="730" as="targetPoint" />
          </mxGeometry>
        </mxCell>
        <mxCell id="lvXHl1viZSX33oN0ZZub-68" value="" style="endArrow=none;html=1;rounded=0;exitX=0;exitY=0.5;exitDx=0;exitDy=0;entryX=1;entryY=0.5;entryDx=0;entryDy=0;" edge="1" parent="1" source="lvXHl1viZSX33oN0ZZub-58" target="lvXHl1viZSX33oN0ZZub-57">
          <mxGeometry width="50" height="50" relative="1" as="geometry">
            <mxPoint x="710" y="740" as="sourcePoint" />
            <mxPoint x="644" y="740" as="targetPoint" />
          </mxGeometry>
        </mxCell>
        <mxCell id="lvXHl1viZSX33oN0ZZub-69" value="" style="endArrow=none;html=1;rounded=0;exitX=0;exitY=0.5;exitDx=0;exitDy=0;entryX=1;entryY=0.5;entryDx=0;entryDy=0;" edge="1" parent="1" source="lvXHl1viZSX33oN0ZZub-57" target="lvXHl1viZSX33oN0ZZub-56">
          <mxGeometry width="50" height="50" relative="1" as="geometry">
            <mxPoint x="484" y="730" as="sourcePoint" />
            <mxPoint x="446" y="730" as="targetPoint" />
          </mxGeometry>
        </mxCell>
        <mxCell id="lvXHl1viZSX33oN0ZZub-70" value="" style="endArrow=none;html=1;rounded=0;entryX=1;entryY=0.5;entryDx=0;entryDy=0;" edge="1" parent="1" source="lvXHl1viZSX33oN0ZZub-56" target="lvXHl1viZSX33oN0ZZub-55">
          <mxGeometry width="50" height="50" relative="1" as="geometry">
            <mxPoint x="402" y="730" as="sourcePoint" />
            <mxPoint x="314" y="730" as="targetPoint" />
          </mxGeometry>
        </mxCell>
        <mxCell id="lvXHl1viZSX33oN0ZZub-71" value="" style="endArrow=none;html=1;rounded=0;entryX=1;entryY=0.5;entryDx=0;entryDy=0;" edge="1" parent="1" source="lvXHl1viZSX33oN0ZZub-55" target="lvXHl1viZSX33oN0ZZub-53">
          <mxGeometry width="50" height="50" relative="1" as="geometry">
            <mxPoint x="270" y="730" as="sourcePoint" />
            <mxPoint x="220" y="730" as="targetPoint" />
          </mxGeometry>
        </mxCell>
        <mxCell id="lvXHl1viZSX33oN0ZZub-72" value="" style="endArrow=none;html=1;rounded=0;entryX=0;entryY=0;entryDx=0;entryDy=0;exitX=0.788;exitY=1.05;exitDx=0;exitDy=0;exitPerimeter=0;" edge="1" parent="1" source="lvXHl1viZSX33oN0ZZub-53" target="lvXHl1viZSX33oN0ZZub-54">
          <mxGeometry width="50" height="50" relative="1" as="geometry">
            <mxPoint x="176" y="730" as="sourcePoint" />
            <mxPoint x="144" y="730" as="targetPoint" />
          </mxGeometry>
        </mxCell>
        <mxCell id="lvXHl1viZSX33oN0ZZub-73" value="" style="endArrow=none;html=1;rounded=0;entryX=0.682;entryY=-0.017;entryDx=0;entryDy=0;exitX=0.333;exitY=0.933;exitDx=0;exitDy=0;exitPerimeter=0;entryPerimeter=0;" edge="1" parent="1" source="lvXHl1viZSX33oN0ZZub-55" target="lvXHl1viZSX33oN0ZZub-54">
          <mxGeometry width="50" height="50" relative="1" as="geometry">
            <mxPoint x="135" y="752" as="sourcePoint" />
            <mxPoint x="150" y="776" as="targetPoint" />
          </mxGeometry>
        </mxCell>
        <mxCell id="lvXHl1viZSX33oN0ZZub-74" value="" style="endArrow=none;html=1;rounded=0;entryX=0.5;entryY=0;entryDx=0;entryDy=0;exitX=0.242;exitY=1.05;exitDx=0;exitDy=0;exitPerimeter=0;" edge="1" parent="1" source="lvXHl1viZSX33oN0ZZub-54" target="lvXHl1viZSX33oN0ZZub-32">
          <mxGeometry width="50" height="50" relative="1" as="geometry">
            <mxPoint x="145" y="762" as="sourcePoint" />
            <mxPoint x="160" y="786" as="targetPoint" />
          </mxGeometry>
        </mxCell>
        <mxCell id="lvXHl1viZSX33oN0ZZub-75" value="" style="endArrow=none;html=1;rounded=0;entryX=1;entryY=1;entryDx=0;entryDy=0;" edge="1" parent="1" source="lvXHl1viZSX33oN0ZZub-33" target="lvXHl1viZSX33oN0ZZub-54">
          <mxGeometry width="50" height="50" relative="1" as="geometry">
            <mxPoint x="155" y="812" as="sourcePoint" />
            <mxPoint x="122" y="860" as="targetPoint" />
          </mxGeometry>
        </mxCell>
        <mxCell id="lvXHl1viZSX33oN0ZZub-76" value="" style="endArrow=none;html=1;rounded=0;entryX=0.5;entryY=0;entryDx=0;entryDy=0;exitX=0.318;exitY=1.05;exitDx=0;exitDy=0;exitPerimeter=0;" edge="1" parent="1" source="lvXHl1viZSX33oN0ZZub-56" target="lvXHl1viZSX33oN0ZZub-33">
          <mxGeometry width="50" height="50" relative="1" as="geometry">
            <mxPoint x="229" y="864" as="sourcePoint" />
            <mxPoint x="182" y="804" as="targetPoint" />
          </mxGeometry>
        </mxCell>
        <mxCell id="lvXHl1viZSX33oN0ZZub-77" value="" style="endArrow=none;html=1;rounded=0;entryX=0.5;entryY=0;entryDx=0;entryDy=0;exitX=0.667;exitY=1.033;exitDx=0;exitDy=0;exitPerimeter=0;" edge="1" parent="1" source="lvXHl1viZSX33oN0ZZub-56" target="lvXHl1viZSX33oN0ZZub-34">
          <mxGeometry width="50" height="50" relative="1" as="geometry">
            <mxPoint x="284" y="752" as="sourcePoint" />
            <mxPoint x="242" y="860" as="targetPoint" />
          </mxGeometry>
        </mxCell>
        <mxCell id="lvXHl1viZSX33oN0ZZub-78" value="" style="endArrow=none;html=1;rounded=0;entryX=0.5;entryY=0;entryDx=0;entryDy=0;exitX=0.5;exitY=1;exitDx=0;exitDy=0;" edge="1" parent="1" source="lvXHl1viZSX33oN0ZZub-57" target="lvXHl1viZSX33oN0ZZub-35">
          <mxGeometry width="50" height="50" relative="1" as="geometry">
            <mxPoint x="294" y="762" as="sourcePoint" />
            <mxPoint x="252" y="870" as="targetPoint" />
          </mxGeometry>
        </mxCell>
        <mxCell id="lvXHl1viZSX33oN0ZZub-79" value="" style="endArrow=none;html=1;rounded=0;entryX=0.333;entryY=0.033;entryDx=0;entryDy=0;exitX=0.5;exitY=1;exitDx=0;exitDy=0;entryPerimeter=0;" edge="1" parent="1" source="lvXHl1viZSX33oN0ZZub-58" target="lvXHl1viZSX33oN0ZZub-36">
          <mxGeometry width="50" height="50" relative="1" as="geometry">
            <mxPoint x="304" y="772" as="sourcePoint" />
            <mxPoint x="262" y="880" as="targetPoint" />
          </mxGeometry>
        </mxCell>
        <mxCell id="lvXHl1viZSX33oN0ZZub-80" value="A29" style="ellipse;whiteSpace=wrap;html=1;" vertex="1" parent="1">
          <mxGeometry x="536" y="620" width="44" height="40" as="geometry" />
        </mxCell>
        <mxCell id="lvXHl1viZSX33oN0ZZub-81" value="A30" style="ellipse;whiteSpace=wrap;html=1;" vertex="1" parent="1">
          <mxGeometry x="392" y="570" width="44" height="40" as="geometry" />
        </mxCell>
        <mxCell id="lvXHl1viZSX33oN0ZZub-82" value="A31" style="ellipse;whiteSpace=wrap;html=1;" vertex="1" parent="1">
          <mxGeometry x="216" y="565" width="44" height="40" as="geometry" />
        </mxCell>
        <mxCell id="lvXHl1viZSX33oN0ZZub-83" value="" style="endArrow=none;html=1;rounded=0;exitX=0;exitY=1;exitDx=0;exitDy=0;entryX=0.5;entryY=0;entryDx=0;entryDy=0;" edge="1" parent="1" source="lvXHl1viZSX33oN0ZZub-82" target="lvXHl1viZSX33oN0ZZub-55">
          <mxGeometry width="50" height="50" relative="1" as="geometry">
            <mxPoint x="402" y="730" as="sourcePoint" />
            <mxPoint x="314" y="730" as="targetPoint" />
          </mxGeometry>
        </mxCell>
        <mxCell id="lvXHl1viZSX33oN0ZZub-84" value="" style="endArrow=none;html=1;rounded=0;exitX=0.697;exitY=0.925;exitDx=0;exitDy=0;entryX=0.5;entryY=0;entryDx=0;entryDy=0;exitPerimeter=0;" edge="1" parent="1" source="lvXHl1viZSX33oN0ZZub-82" target="lvXHl1viZSX33oN0ZZub-56">
          <mxGeometry width="50" height="50" relative="1" as="geometry">
            <mxPoint x="412" y="740" as="sourcePoint" />
            <mxPoint x="324" y="740" as="targetPoint" />
          </mxGeometry>
        </mxCell>
        <mxCell id="lvXHl1viZSX33oN0ZZub-85" value="" style="endArrow=none;html=1;rounded=0;exitX=0.5;exitY=0;exitDx=0;exitDy=0;entryX=0.5;entryY=1;entryDx=0;entryDy=0;" edge="1" parent="1" source="lvXHl1viZSX33oN0ZZub-57" target="lvXHl1viZSX33oN0ZZub-81">
          <mxGeometry width="50" height="50" relative="1" as="geometry">
            <mxPoint x="422" y="750" as="sourcePoint" />
            <mxPoint x="334" y="750" as="targetPoint" />
          </mxGeometry>
        </mxCell>
        <mxCell id="lvXHl1viZSX33oN0ZZub-86" value="" style="endArrow=none;html=1;rounded=0;exitX=0.5;exitY=0;exitDx=0;exitDy=0;entryX=1;entryY=1;entryDx=0;entryDy=0;" edge="1" parent="1" source="lvXHl1viZSX33oN0ZZub-58" target="lvXHl1viZSX33oN0ZZub-81">
          <mxGeometry width="50" height="50" relative="1" as="geometry">
            <mxPoint x="424" y="710" as="sourcePoint" />
            <mxPoint x="424" y="620" as="targetPoint" />
          </mxGeometry>
        </mxCell>
        <mxCell id="lvXHl1viZSX33oN0ZZub-87" value="" style="endArrow=none;html=1;rounded=0;exitX=0.5;exitY=0;exitDx=0;exitDy=0;entryX=1;entryY=1;entryDx=0;entryDy=0;" edge="1" parent="1" source="lvXHl1viZSX33oN0ZZub-59" target="lvXHl1viZSX33oN0ZZub-80">
          <mxGeometry width="50" height="50" relative="1" as="geometry">
            <mxPoint x="434" y="720" as="sourcePoint" />
            <mxPoint x="434" y="630" as="targetPoint" />
          </mxGeometry>
        </mxCell>
        <mxCell id="lvXHl1viZSX33oN0ZZub-88" value="" style="endArrow=none;html=1;rounded=0;exitX=0;exitY=0;exitDx=0;exitDy=0;entryX=1;entryY=0.5;entryDx=0;entryDy=0;" edge="1" parent="1" source="lvXHl1viZSX33oN0ZZub-61" target="lvXHl1viZSX33oN0ZZub-80">
          <mxGeometry width="50" height="50" relative="1" as="geometry">
            <mxPoint x="444" y="730" as="sourcePoint" />
            <mxPoint x="444" y="640" as="targetPoint" />
          </mxGeometry>
        </mxCell>
        <mxCell id="lvXHl1viZSX33oN0ZZub-89" value="" style="endArrow=none;html=1;rounded=0;exitX=1;exitY=0.5;exitDx=0;exitDy=0;entryX=0;entryY=0;entryDx=0;entryDy=0;" edge="1" parent="1" source="lvXHl1viZSX33oN0ZZub-81" target="lvXHl1viZSX33oN0ZZub-80">
          <mxGeometry width="50" height="50" relative="1" as="geometry">
            <mxPoint x="454" y="740" as="sourcePoint" />
            <mxPoint x="454" y="650" as="targetPoint" />
          </mxGeometry>
        </mxCell>
        <mxCell id="lvXHl1viZSX33oN0ZZub-90" value="" style="endArrow=none;html=1;rounded=0;exitX=1;exitY=0.5;exitDx=0;exitDy=0;entryX=0;entryY=0.5;entryDx=0;entryDy=0;" edge="1" parent="1" source="lvXHl1viZSX33oN0ZZub-82" target="lvXHl1viZSX33oN0ZZub-81">
          <mxGeometry width="50" height="50" relative="1" as="geometry">
            <mxPoint x="260" y="585" as="sourcePoint" />
            <mxPoint x="380" y="590" as="targetPoint" />
          </mxGeometry>
        </mxCell>
        <mxCell id="lvXHl1viZSX33oN0ZZub-91" value="B" style="ellipse;whiteSpace=wrap;html=1;" vertex="1" parent="1">
          <mxGeometry x="354" y="420" width="120" height="80" as="geometry" />
        </mxCell>
        <mxCell id="lvXHl1viZSX33oN0ZZub-92" value="" style="endArrow=none;html=1;rounded=0;exitX=0.5;exitY=1;exitDx=0;exitDy=0;entryX=0.5;entryY=0;entryDx=0;entryDy=0;" edge="1" parent="1" source="lvXHl1viZSX33oN0ZZub-91" target="lvXHl1viZSX33oN0ZZub-81">
          <mxGeometry width="50" height="50" relative="1" as="geometry">
            <mxPoint x="270" y="595" as="sourcePoint" />
            <mxPoint x="402" y="600" as="targetPoint" />
          </mxGeometry>
        </mxCell>
        <mxCell id="lvXHl1viZSX33oN0ZZub-93" value="3" style="text;html=1;align=center;verticalAlign=middle;resizable=0;points=[];autosize=1;strokeColor=none;fillColor=none;" vertex="1" parent="1">
          <mxGeometry x="405" y="960" width="30" height="30" as="geometry" />
        </mxCell>
        <mxCell id="lvXHl1viZSX33oN0ZZub-94" value="4" style="text;html=1;align=center;verticalAlign=middle;resizable=0;points=[];autosize=1;strokeColor=none;fillColor=none;" vertex="1" parent="1">
          <mxGeometry x="445" y="960" width="30" height="30" as="geometry" />
        </mxCell>
        <mxCell id="lvXHl1viZSX33oN0ZZub-95" value="5" style="text;html=1;align=center;verticalAlign=middle;resizable=0;points=[];autosize=1;strokeColor=none;fillColor=none;" vertex="1" parent="1">
          <mxGeometry x="345" y="968" width="30" height="30" as="geometry" />
        </mxCell>
        <mxCell id="lvXHl1viZSX33oN0ZZub-96" value="3" style="text;html=1;align=center;verticalAlign=middle;resizable=0;points=[];autosize=1;strokeColor=none;fillColor=none;" vertex="1" parent="1">
          <mxGeometry x="435" y="930" width="30" height="30" as="geometry" />
        </mxCell>
        <mxCell id="lvXHl1viZSX33oN0ZZub-97" value="3" style="text;html=1;align=center;verticalAlign=middle;resizable=0;points=[];autosize=1;strokeColor=none;fillColor=none;" vertex="1" parent="1">
          <mxGeometry x="359" y="930" width="30" height="30" as="geometry" />
        </mxCell>
        <mxCell id="lvXHl1viZSX33oN0ZZub-98" value="17" style="text;html=1;align=center;verticalAlign=middle;resizable=0;points=[];autosize=1;strokeColor=none;fillColor=none;" vertex="1" parent="1">
          <mxGeometry x="499" y="1008" width="40" height="30" as="geometry" />
        </mxCell>
        <mxCell id="lvXHl1viZSX33oN0ZZub-99" value="19" style="text;html=1;align=center;verticalAlign=middle;resizable=0;points=[];autosize=1;strokeColor=none;fillColor=none;" vertex="1" parent="1">
          <mxGeometry x="280" y="1008" width="40" height="30" as="geometry" />
        </mxCell>
        <mxCell id="lvXHl1viZSX33oN0ZZub-100" value="3" style="text;html=1;align=center;verticalAlign=middle;resizable=0;points=[];autosize=1;strokeColor=none;fillColor=none;" vertex="1" parent="1">
          <mxGeometry x="134" y="1008" width="30" height="30" as="geometry" />
        </mxCell>
        <mxCell id="lvXHl1viZSX33oN0ZZub-101" value="4" style="text;html=1;align=center;verticalAlign=middle;resizable=0;points=[];autosize=1;strokeColor=none;fillColor=none;" vertex="1" parent="1">
          <mxGeometry x="654" y="1008" width="30" height="30" as="geometry" />
        </mxCell>
        <mxCell id="lvXHl1viZSX33oN0ZZub-102" value="3" style="text;html=1;align=center;verticalAlign=middle;resizable=0;points=[];autosize=1;strokeColor=none;fillColor=none;" vertex="1" parent="1">
          <mxGeometry x="85" y="958" width="30" height="30" as="geometry" />
        </mxCell>
        <mxCell id="lvXHl1viZSX33oN0ZZub-103" value="5" style="text;html=1;align=center;verticalAlign=middle;resizable=0;points=[];autosize=1;strokeColor=none;fillColor=none;" vertex="1" parent="1">
          <mxGeometry x="204" y="960" width="30" height="30" as="geometry" />
        </mxCell>
        <mxCell id="lvXHl1viZSX33oN0ZZub-104" value="4" style="text;html=1;align=center;verticalAlign=middle;resizable=0;points=[];autosize=1;strokeColor=none;fillColor=none;" vertex="1" parent="1">
          <mxGeometry x="605" y="958" width="30" height="30" as="geometry" />
        </mxCell>
        <mxCell id="lvXHl1viZSX33oN0ZZub-105" value="3" style="text;html=1;align=center;verticalAlign=middle;resizable=0;points=[];autosize=1;strokeColor=none;fillColor=none;" vertex="1" parent="1">
          <mxGeometry x="705" y="958" width="30" height="30" as="geometry" />
        </mxCell>
        <mxCell id="lvXHl1viZSX33oN0ZZub-107" value="6" style="text;html=1;align=center;verticalAlign=middle;resizable=0;points=[];autosize=1;strokeColor=none;fillColor=none;" vertex="1" parent="1">
          <mxGeometry x="645" y="918" width="30" height="30" as="geometry" />
        </mxCell>
        <mxCell id="lvXHl1viZSX33oN0ZZub-108" value="5" style="text;html=1;align=center;verticalAlign=middle;resizable=0;points=[];autosize=1;strokeColor=none;fillColor=none;" vertex="1" parent="1">
          <mxGeometry x="629" y="890" width="30" height="30" as="geometry" />
        </mxCell>
        <mxCell id="lvXHl1viZSX33oN0ZZub-109" value="9" style="text;html=1;align=center;verticalAlign=middle;resizable=0;points=[];autosize=1;strokeColor=none;fillColor=none;" vertex="1" parent="1">
          <mxGeometry x="525" y="938" width="30" height="30" as="geometry" />
        </mxCell>
        <mxCell id="lvXHl1viZSX33oN0ZZub-110" value="8" style="text;html=1;align=center;verticalAlign=middle;resizable=0;points=[];autosize=1;strokeColor=none;fillColor=none;" vertex="1" parent="1">
          <mxGeometry x="165" y="938" width="30" height="30" as="geometry" />
        </mxCell>
        <mxCell id="lvXHl1viZSX33oN0ZZub-111" value="7" style="text;html=1;align=center;verticalAlign=middle;resizable=0;points=[];autosize=1;strokeColor=none;fillColor=none;" vertex="1" parent="1">
          <mxGeometry x="275" y="938" width="30" height="30" as="geometry" />
        </mxCell>
        <mxCell id="lvXHl1viZSX33oN0ZZub-112" value="5" style="text;html=1;align=center;verticalAlign=middle;resizable=0;points=[];autosize=1;strokeColor=none;fillColor=none;" vertex="1" parent="1">
          <mxGeometry x="545" y="890" width="30" height="30" as="geometry" />
        </mxCell>
        <mxCell id="lvXHl1viZSX33oN0ZZub-113" value="4" style="text;html=1;align=center;verticalAlign=middle;resizable=0;points=[];autosize=1;strokeColor=none;fillColor=none;" vertex="1" parent="1">
          <mxGeometry x="505" y="888" width="30" height="30" as="geometry" />
        </mxCell>
        <mxCell id="lvXHl1viZSX33oN0ZZub-114" value="3" style="text;html=1;align=center;verticalAlign=middle;resizable=0;points=[];autosize=1;strokeColor=none;fillColor=none;" vertex="1" parent="1">
          <mxGeometry x="385" y="888" width="30" height="30" as="geometry" />
        </mxCell>
        <mxCell id="lvXHl1viZSX33oN0ZZub-115" value="3" style="text;html=1;align=center;verticalAlign=middle;resizable=0;points=[];autosize=1;strokeColor=none;fillColor=none;" vertex="1" parent="1">
          <mxGeometry x="299" y="890" width="30" height="30" as="geometry" />
        </mxCell>
        <mxCell id="lvXHl1viZSX33oN0ZZub-116" value="3" style="text;html=1;align=center;verticalAlign=middle;resizable=0;points=[];autosize=1;strokeColor=none;fillColor=none;" vertex="1" parent="1">
          <mxGeometry x="225" y="888" width="30" height="30" as="geometry" />
        </mxCell>
        <mxCell id="lvXHl1viZSX33oN0ZZub-117" value="3" style="text;html=1;align=center;verticalAlign=middle;resizable=0;points=[];autosize=1;strokeColor=none;fillColor=none;" vertex="1" parent="1">
          <mxGeometry x="105" y="888" width="30" height="30" as="geometry" />
        </mxCell>
        <mxCell id="lvXHl1viZSX33oN0ZZub-118" value="8" style="text;html=1;align=center;verticalAlign=middle;resizable=0;points=[];autosize=1;strokeColor=none;fillColor=none;" vertex="1" parent="1">
          <mxGeometry x="155" y="868" width="30" height="30" as="geometry" />
        </mxCell>
        <mxCell id="lvXHl1viZSX33oN0ZZub-119" value="4" style="text;html=1;align=center;verticalAlign=middle;resizable=0;points=[];autosize=1;strokeColor=none;fillColor=none;" vertex="1" parent="1">
          <mxGeometry x="255" y="868" width="30" height="30" as="geometry" />
        </mxCell>
        <mxCell id="lvXHl1viZSX33oN0ZZub-120" value="6" style="text;html=1;align=center;verticalAlign=middle;resizable=0;points=[];autosize=1;strokeColor=none;fillColor=none;" vertex="1" parent="1">
          <mxGeometry x="345" y="868" width="30" height="30" as="geometry" />
        </mxCell>
        <mxCell id="lvXHl1viZSX33oN0ZZub-121" value="8" style="text;html=1;align=center;verticalAlign=middle;resizable=0;points=[];autosize=1;strokeColor=none;fillColor=none;" vertex="1" parent="1">
          <mxGeometry x="455" y="868" width="30" height="30" as="geometry" />
        </mxCell>
        <mxCell id="lvXHl1viZSX33oN0ZZub-122" value="7" style="text;html=1;align=center;verticalAlign=middle;resizable=0;points=[];autosize=1;strokeColor=none;fillColor=none;" vertex="1" parent="1">
          <mxGeometry x="575" y="868" width="30" height="30" as="geometry" />
        </mxCell>
        <mxCell id="lvXHl1viZSX33oN0ZZub-123" value="3" style="text;html=1;align=center;verticalAlign=middle;resizable=0;points=[];autosize=1;strokeColor=none;fillColor=none;" vertex="1" parent="1">
          <mxGeometry x="665" y="868" width="30" height="30" as="geometry" />
        </mxCell>
        <mxCell id="lvXHl1viZSX33oN0ZZub-124" value="5" style="text;html=1;align=center;verticalAlign=middle;resizable=0;points=[];autosize=1;strokeColor=none;fillColor=none;" vertex="1" parent="1">
          <mxGeometry x="125" y="808" width="30" height="30" as="geometry" />
        </mxCell>
        <mxCell id="lvXHl1viZSX33oN0ZZub-125" value="7" style="text;html=1;align=center;verticalAlign=middle;resizable=0;points=[];autosize=1;strokeColor=none;fillColor=none;" vertex="1" parent="1">
          <mxGeometry x="185" y="798" width="30" height="30" as="geometry" />
        </mxCell>
        <mxCell id="lvXHl1viZSX33oN0ZZub-126" value="11" style="text;html=1;align=center;verticalAlign=middle;resizable=0;points=[];autosize=1;strokeColor=none;fillColor=none;" vertex="1" parent="1">
          <mxGeometry x="240" y="808" width="40" height="30" as="geometry" />
        </mxCell>
        <mxCell id="lvXHl1viZSX33oN0ZZub-127" value="11" style="text;html=1;align=center;verticalAlign=middle;resizable=0;points=[];autosize=1;strokeColor=none;fillColor=none;" vertex="1" parent="1">
          <mxGeometry x="300" y="798" width="40" height="30" as="geometry" />
        </mxCell>
        <mxCell id="lvXHl1viZSX33oN0ZZub-128" value="11" style="text;html=1;align=center;verticalAlign=middle;resizable=0;points=[];autosize=1;strokeColor=none;fillColor=none;" vertex="1" parent="1">
          <mxGeometry x="410" y="788" width="40" height="30" as="geometry" />
        </mxCell>
        <mxCell id="lvXHl1viZSX33oN0ZZub-129" value="11" style="text;html=1;align=center;verticalAlign=middle;resizable=0;points=[];autosize=1;strokeColor=none;fillColor=none;" vertex="1" parent="1">
          <mxGeometry x="480" y="788" width="40" height="30" as="geometry" />
        </mxCell>
        <mxCell id="lvXHl1viZSX33oN0ZZub-130" value="3" style="text;html=1;align=center;verticalAlign=middle;resizable=0;points=[];autosize=1;strokeColor=none;fillColor=none;rotation=0;" vertex="1" parent="1">
          <mxGeometry x="105" y="738" width="30" height="30" as="geometry" />
        </mxCell>
        <mxCell id="lvXHl1viZSX33oN0ZZub-131" value="3" style="text;html=1;align=center;verticalAlign=middle;resizable=0;points=[];autosize=1;strokeColor=none;fillColor=none;" vertex="1" parent="1">
          <mxGeometry x="135" y="718" width="30" height="30" as="geometry" />
        </mxCell>
        <mxCell id="lvXHl1viZSX33oN0ZZub-132" value="3" style="text;html=1;align=center;verticalAlign=middle;resizable=0;points=[];autosize=1;strokeColor=none;fillColor=none;" vertex="1" parent="1">
          <mxGeometry x="165" y="738" width="30" height="30" as="geometry" />
        </mxCell>
        <mxCell id="lvXHl1viZSX33oN0ZZub-133" value="2" style="text;html=1;align=center;verticalAlign=middle;resizable=0;points=[];autosize=1;strokeColor=none;fillColor=none;" vertex="1" parent="1">
          <mxGeometry x="635" y="828" width="30" height="30" as="geometry" />
        </mxCell>
        <mxCell id="lvXHl1viZSX33oN0ZZub-134" value="2" style="text;html=1;align=center;verticalAlign=middle;resizable=0;points=[];autosize=1;strokeColor=none;fillColor=none;" vertex="1" parent="1">
          <mxGeometry x="690" y="820" width="30" height="30" as="geometry" />
        </mxCell>
        <mxCell id="lvXHl1viZSX33oN0ZZub-135" value="6" style="text;html=1;align=center;verticalAlign=middle;resizable=0;points=[];autosize=1;strokeColor=none;fillColor=none;" vertex="1" parent="1">
          <mxGeometry x="705" y="758" width="30" height="30" as="geometry" />
        </mxCell>
        <mxCell id="lvXHl1viZSX33oN0ZZub-136" value="6" style="text;html=1;align=center;verticalAlign=middle;resizable=0;points=[];autosize=1;strokeColor=none;fillColor=none;" vertex="1" parent="1">
          <mxGeometry x="605" y="758" width="30" height="30" as="geometry" />
        </mxCell>
        <mxCell id="lvXHl1viZSX33oN0ZZub-137" value="7" style="text;html=1;align=center;verticalAlign=middle;resizable=0;points=[];autosize=1;strokeColor=none;fillColor=none;" vertex="1" parent="1">
          <mxGeometry x="635" y="718" width="30" height="30" as="geometry" />
        </mxCell>
        <mxCell id="lvXHl1viZSX33oN0ZZub-138" value="6" style="text;html=1;align=center;verticalAlign=middle;resizable=0;points=[];autosize=1;strokeColor=none;fillColor=none;" vertex="1" parent="1">
          <mxGeometry x="539" y="718" width="30" height="30" as="geometry" />
        </mxCell>
        <mxCell id="lvXHl1viZSX33oN0ZZub-139" value="3" style="text;html=1;align=center;verticalAlign=middle;resizable=0;points=[];autosize=1;strokeColor=none;fillColor=none;" vertex="1" parent="1">
          <mxGeometry x="435" y="718" width="30" height="30" as="geometry" />
        </mxCell>
        <mxCell id="lvXHl1viZSX33oN0ZZub-140" value="9" style="text;html=1;align=center;verticalAlign=middle;resizable=0;points=[];autosize=1;strokeColor=none;fillColor=none;" vertex="1" parent="1">
          <mxGeometry x="325" y="718" width="30" height="30" as="geometry" />
        </mxCell>
        <mxCell id="lvXHl1viZSX33oN0ZZub-141" value="5" style="text;html=1;align=center;verticalAlign=middle;resizable=0;points=[];autosize=1;strokeColor=none;fillColor=none;" vertex="1" parent="1">
          <mxGeometry x="215" y="718" width="30" height="30" as="geometry" />
        </mxCell>
        <mxCell id="lvXHl1viZSX33oN0ZZub-142" value="10" style="text;html=1;align=center;verticalAlign=middle;resizable=0;points=[];autosize=1;strokeColor=none;fillColor=none;" vertex="1" parent="1">
          <mxGeometry x="190" y="648" width="40" height="30" as="geometry" />
        </mxCell>
        <mxCell id="lvXHl1viZSX33oN0ZZub-143" value="10" style="text;html=1;align=center;verticalAlign=middle;resizable=0;points=[];autosize=1;strokeColor=none;fillColor=none;" vertex="1" parent="1">
          <mxGeometry x="260" y="638" width="40" height="30" as="geometry" />
        </mxCell>
        <mxCell id="lvXHl1viZSX33oN0ZZub-144" value="13" style="text;html=1;align=center;verticalAlign=middle;resizable=0;points=[];autosize=1;strokeColor=none;fillColor=none;" vertex="1" parent="1">
          <mxGeometry x="285" y="585" width="40" height="30" as="geometry" />
        </mxCell>
        <mxCell id="lvXHl1viZSX33oN0ZZub-145" value="9" style="text;html=1;align=center;verticalAlign=middle;resizable=0;points=[];autosize=1;strokeColor=none;fillColor=none;" vertex="1" parent="1">
          <mxGeometry x="405" y="648" width="30" height="30" as="geometry" />
        </mxCell>
        <mxCell id="lvXHl1viZSX33oN0ZZub-146" value="10" style="text;html=1;align=center;verticalAlign=middle;resizable=0;points=[];autosize=1;strokeColor=none;fillColor=none;" vertex="1" parent="1">
          <mxGeometry x="440" y="658" width="40" height="30" as="geometry" />
        </mxCell>
        <mxCell id="lvXHl1viZSX33oN0ZZub-147" value="4" style="text;html=1;align=center;verticalAlign=middle;resizable=0;points=[];autosize=1;strokeColor=none;fillColor=none;" vertex="1" parent="1">
          <mxGeometry x="560" y="660" width="30" height="30" as="geometry" />
        </mxCell>
        <mxCell id="lvXHl1viZSX33oN0ZZub-148" value="15" style="text;html=1;align=center;verticalAlign=middle;resizable=0;points=[];autosize=1;strokeColor=none;fillColor=none;" vertex="1" parent="1">
          <mxGeometry x="640" y="658" width="40" height="30" as="geometry" />
        </mxCell>
        <mxCell id="lvXHl1viZSX33oN0ZZub-149" value="11" style="text;html=1;align=center;verticalAlign=middle;resizable=0;points=[];autosize=1;strokeColor=none;fillColor=none;" vertex="1" parent="1">
          <mxGeometry x="476" y="608" width="40" height="30" as="geometry" />
        </mxCell>
        <mxCell id="lvXHl1viZSX33oN0ZZub-150" value="3" style="text;html=1;align=center;verticalAlign=middle;resizable=0;points=[];autosize=1;strokeColor=none;fillColor=none;" vertex="1" parent="1">
          <mxGeometry x="705" y="888" width="30" height="30" as="geometry" />
        </mxCell>
      </root>
    </mxGraphModel>
  </diagram>
</mxfile>
